<?xml version="1.0" encoding="UTF-8" standalone="no"?>
<!DOCTYPE svg PUBLIC "-//W3C//DTD SVG 1.1//EN"
 "http://www.w3.org/Graphics/SVG/1.1/DTD/svg11.dtd">
<!-- Generated by graphviz version 2.40.1 (20161225.0304)
 -->
<!-- Title: G Pages: 1 -->
<svg width="696pt" height="401pt"
 viewBox="0.00 0.00 695.89 401.00" xmlns="http://www.w3.org/2000/svg" xmlns:xlink="http://www.w3.org/1999/xlink">
<g id="graph0" class="graph" transform="scale(1 1) rotate(0) translate(4 397)">
<title>G</title>
<polygon fill="#ffffff" stroke="transparent" points="-4,4 -4,-397 691.8907,-397 691.8907,4 -4,4"/>
<g id="clust1" class="cluster">
<title>cluster3</title>
<polygon fill="none" stroke="#000000" points="8,-8 8,-155 130,-155 130,-8 8,-8"/>
<text text-anchor="middle" x="69" y="-139.8" font-family="Times,serif" font-size="14.00" fill="#000000">iam</text>
</g>
<g id="clust2" class="cluster">
<title>cluster0</title>
<polygon fill="none" stroke="#000000" points="382,-8 382,-155 668,-155 668,-8 382,-8"/>
<text text-anchor="middle" x="525" y="-139.8" font-family="Times,serif" font-size="14.00" fill="#000000">Imaginator</text>
</g>
<g id="clust3" class="cluster">
<title>cluster1</title>
<polygon fill="none" stroke="#000000" points="474,-238 474,-385 628,-385 628,-238 474,-238"/>
<text text-anchor="middle" x="551" y="-369.8" font-family="Times,serif" font-size="14.00" fill="#000000">Dominator</text>
</g>
<g id="clust4" class="cluster">
<title>cluster2</title>
<polygon fill="none" stroke="#000000" points="138,-80 138,-230 374,-230 374,-80 138,-80"/>
<text text-anchor="middle" x="256" y="-214.8" font-family="Times,serif" font-size="14.00" fill="#000000">SmallStack</text>
</g>
<!-- keymasterd -->
<g id="node1" class="node">
<title>keymasterd</title>
<g id="a_node1"><a xlink:href="https://github.com/Cloud-Foundations/keymaster/blob/master/README.md" xlink:title="keymasterd">
<ellipse fill="#bfefff" stroke="#bfefff" cx="69" cy="-34" rx="52.7911" ry="18"/>
<text text-anchor="middle" x="69" y="-30.3" font-family="Times,serif" font-size="14.00" fill="#000000">keymasterd</text>
</a>
</g>
</g>
<!-- cloudgate -->
<g id="node2" class="node">
<title>cloudgate</title>
<g id="a_node2"><a xlink:href="https://github.com/Cloud-Foundations/cloud-gate/blob/master/README.md" xlink:title="cloudgate">
<ellipse fill="#bfefff" stroke="#bfefff" cx="76" cy="-106" rx="46.2923" ry="18"/>
<text text-anchor="middle" x="76" y="-102.3" font-family="Times,serif" font-size="14.00" fill="#000000">cloudgate</text>
</a>
</g>
</g>
<!-- cloudgate&#45;&gt;keymasterd -->
<g id="edge1" class="edge">
<title>cloudgate&#45;&gt;keymasterd</title>
<path fill="none" stroke="#000000" d="M74.2336,-87.8314C73.485,-80.131 72.5947,-70.9743 71.7627,-62.4166"/>
<polygon fill="#000000" stroke="#000000" points="75.2415,-62.0276 70.7902,-52.4133 68.2744,-62.7051 75.2415,-62.0276"/>
</g>
<!-- ImageServer -->
<g id="node3" class="node">
<title>ImageServer</title>
<g id="a_node3"><a xlink:href="https://github.com/Cloud-Foundations/Dominator/blob/master/cmd/imageserver/README.md" xlink:title="ImageServer">
<ellipse fill="#bfefff" stroke="#bfefff" cx="603" cy="-34" rx="57.3905" ry="18"/>
<text text-anchor="middle" x="603" y="-30.3" font-family="Times,serif" font-size="14.00" fill="#000000">ImageServer</text>
</a>
</g>
</g>
<!-- Imaginator -->
<g id="node4" class="node">
<title>Imaginator</title>
<g id="a_node4"><a xlink:href="https://github.com/Cloud-Foundations/Dominator/blob/master/cmd/imaginator/README.md" xlink:title="Imaginator">
<ellipse fill="#bfefff" stroke="#bfefff" cx="581" cy="-106" rx="50.8918" ry="18"/>
<text text-anchor="middle" x="581" y="-102.3" font-family="Times,serif" font-size="14.00" fill="#000000">Imaginator</text>
</a>
</g>
</g>
<!-- Imaginator&#45;&gt;ImageServer -->
<g id="edge2" class="edge">
<title>Imaginator&#45;&gt;ImageServer</title>
<path fill="none" stroke="#000000" d="M586.5515,-87.8314C588.9303,-80.0463 591.7638,-70.7729 594.4033,-62.1347"/>
<polygon fill="#000000" stroke="#000000" points="597.7987,-62.9996 597.3737,-52.4133 591.1042,-60.954 597.7987,-62.9996"/>
</g>
<!-- AmiPublisher -->
<g id="node5" class="node">
<title>AmiPublisher</title>
<ellipse fill="#bfefff" stroke="#bfefff" cx="451" cy="-106" rx="61.1893" ry="18"/>
<text text-anchor="middle" x="451" y="-102.3" font-family="Times,serif" font-size="14.00" fill="#000000">AmiPublisher</text>
</g>
<!-- AmiPublisher&#45;&gt;ImageServer -->
<g id="edge3" class="edge">
<title>AmiPublisher&#45;&gt;ImageServer</title>
<path fill="none" stroke="#000000" d="M483.6078,-90.5542C506.5807,-79.6723 537.5086,-65.0223 562.1298,-53.3596"/>
<polygon fill="#000000" stroke="#000000" points="563.6886,-56.4941 571.2277,-49.0501 560.6919,-50.1679 563.6886,-56.4941"/>
</g>
<!-- ImageUnpacker -->
<g id="node6" class="node">
<title>ImageUnpacker</title>
<ellipse fill="#bfefff" stroke="#bfefff" cx="459" cy="-34" rx="68.7879" ry="18"/>
<text text-anchor="middle" x="459" y="-30.3" font-family="Times,serif" font-size="14.00" fill="#000000">ImageUnpacker</text>
</g>
<!-- AmiPublisher&#45;&gt;ImageUnpacker -->
<g id="edge4" class="edge">
<title>AmiPublisher&#45;&gt;ImageUnpacker</title>
<path fill="none" stroke="#000000" d="M453.0187,-87.8314C453.8743,-80.131 454.8917,-70.9743 455.8426,-62.4166"/>
<polygon fill="#000000" stroke="#000000" points="459.3283,-62.7386 456.9541,-52.4133 452.3711,-61.9656 459.3283,-62.7386"/>
</g>
<!-- Dominator -->
<g id="node7" class="node">
<title>Dominator</title>
<g id="a_node7"><a xlink:href="https://github.com/Cloud-Foundations/Dominator/blob/master/user-guide/README.md" xlink:title="Dominator">
<ellipse fill="#bfefff" stroke="#bfefff" cx="570" cy="-336" rx="50.0912" ry="18"/>
<text text-anchor="middle" x="570" y="-332.3" font-family="Times,serif" font-size="14.00" fill="#000000">Dominator</text>
</a>
</g>
</g>
<!-- Dominator&#45;&gt;ImageServer -->
<g id="edge7" class="edge">
<title>Dominator&#45;&gt;ImageServer</title>
<path fill="none" stroke="#000000" d="M591.6357,-319.7632C603.7642,-309.851 618.5142,-296.351 629,-282 664.7879,-233.0201 668.9255,-214.8189 679,-155 684.5359,-122.1296 695.3673,-109.0383 679,-80 672.4221,-68.3297 661.5588,-59.2832 650.0752,-52.4235"/>
<polygon fill="#000000" stroke="#000000" points="651.6879,-49.3164 641.2335,-47.5969 648.3338,-55.4605 651.6879,-49.3164"/>
</g>
<!-- MDB -->
<g id="node8" class="node">
<title>MDB</title>
<g id="a_node8"><a xlink:href="https://github.com/Cloud-Foundations/Dominator/blob/master/cmd/mdbd/README.md" xlink:title="MDB">
<ellipse fill="#bfefff" stroke="#bfefff" cx="513" cy="-264" rx="31.3957" ry="18"/>
<text text-anchor="middle" x="513" y="-260.3" font-family="Times,serif" font-size="14.00" fill="#000000">MDB</text>
</a>
</g>
</g>
<!-- Dominator&#45;&gt;MDB -->
<g id="edge5" class="edge">
<title>Dominator&#45;&gt;MDB</title>
<path fill="none" stroke="#000000" d="M556.2019,-318.5708C549.0975,-309.5968 540.3147,-298.5028 532.5272,-288.666"/>
<polygon fill="#000000" stroke="#000000" points="535.2298,-286.4409 526.2786,-280.7729 529.7415,-290.7859 535.2298,-286.4409"/>
</g>
<!-- Subd -->
<g id="node9" class="node">
<title>Subd</title>
<g id="a_node9"><a xlink:href="https://github.com/Cloud-Foundations/Dominator/blob/master/cmd/subd/README.md" xlink:title="Subd">
<ellipse fill="#bfefff" stroke="#bfefff" cx="591" cy="-264" rx="29.4969" ry="18"/>
<text text-anchor="middle" x="591" y="-260.3" font-family="Times,serif" font-size="14.00" fill="#000000">Subd</text>
</a>
</g>
</g>
<!-- Dominator&#45;&gt;Subd -->
<g id="edge6" class="edge">
<title>Dominator&#45;&gt;Subd</title>
<path fill="none" stroke="#000000" d="M575.2992,-317.8314C577.6048,-309.9266 580.3579,-300.4872 582.9102,-291.7365"/>
<polygon fill="#000000" stroke="#000000" points="586.3352,-292.4934 585.7753,-281.9134 579.6152,-290.5334 586.3352,-292.4934"/>
</g>
<!-- Hypervisor -->
<g id="node10" class="node">
<title>Hypervisor</title>
<g id="a_node10"><a xlink:href="https://github.com/Cloud-Foundations/Dominator/blob/master/cmd/hypervisor/README.md" xlink:title="Hypervisor">
<ellipse fill="#bfefff" stroke="#bfefff" cx="315" cy="-106" rx="51.1914" ry="18"/>
<text text-anchor="middle" x="315" y="-102.3" font-family="Times,serif" font-size="14.00" fill="#000000">Hypervisor</text>
</a>
</g>
</g>
<!-- MDB&#45;&gt;Hypervisor -->
<g id="edge16" class="edge">
<title>MDB&#45;&gt;Hypervisor</title>
<path fill="none" stroke="#000000" stroke-dasharray="1,5" d="M494.3726,-249.1357C459.6982,-221.4662 385.0393,-161.8899 343.8132,-128.9924"/>
<polygon fill="#000000" stroke="#000000" points="345.7921,-126.0937 335.7927,-122.5921 341.426,-131.5652 345.7921,-126.0937"/>
</g>
<!-- FleetManager -->
<g id="node11" class="node">
<title>FleetManager</title>
<g id="a_node11"><a xlink:href="https://github.com/Cloud-Foundations/Dominator/blob/master/cmd/fleet-manager/README.md" xlink:title="FleetManager">
<ellipse fill="#bfefff" stroke="#bfefff" cx="207" cy="-181" rx="61.1893" ry="18"/>
<text text-anchor="middle" x="207" y="-177.3" font-family="Times,serif" font-size="14.00" fill="#000000">FleetManager</text>
</a>
</g>
</g>
<!-- MDB&#45;&gt;FleetManager -->
<g id="edge15" class="edge">
<title>MDB&#45;&gt;FleetManager</title>
<path fill="none" stroke="#000000" stroke-dasharray="1,5" d="M481.7573,-261.3116C426.4442,-256.2532 313.6614,-244.5116 277,-230 261.7586,-223.967 246.6329,-214.0128 234.3626,-204.6466"/>
<polygon fill="#000000" stroke="#000000" points="236.3713,-201.7728 226.3577,-198.3116 232.0273,-207.2618 236.3713,-201.7728"/>
</g>
<!-- Subd&#45;&gt;ImageServer -->
<g id="edge8" class="edge">
<title>Subd&#45;&gt;ImageServer</title>
<path fill="none" stroke="#000000" d="M605.4453,-248.1344C622.5763,-228.1388 650.1712,-191.9016 661,-155 670.3859,-123.0154 675.503,-110.0129 661,-80 656.3811,-70.4416 648.7045,-62.2624 640.4242,-55.5674"/>
<polygon fill="#000000" stroke="#000000" points="642.4989,-52.7486 632.3806,-49.6068 638.3312,-58.3727 642.4989,-52.7486"/>
</g>
<!-- Hypervisor&#45;&gt;keymasterd -->
<g id="edge14" class="edge">
<title>Hypervisor&#45;&gt;keymasterd</title>
<path fill="none" stroke="#000000" d="M275.4758,-94.432C232.9608,-81.9885 165.2522,-62.1714 119.0482,-48.6483"/>
<polygon fill="#000000" stroke="#000000" points="119.8239,-45.2285 109.2433,-45.7785 117.8575,-51.9467 119.8239,-45.2285"/>
</g>
<!-- Hypervisor&#45;&gt;ImageServer -->
<g id="edge10" class="edge">
<title>Hypervisor&#45;&gt;ImageServer</title>
<path fill="none" stroke="#000000" stroke-dasharray="1,5" d="M346.2463,-91.5362C356.2295,-87.3424 367.4332,-83.0713 378,-80 446.9026,-59.9733 466.9798,-67.6787 537,-52 541.4222,-51.0098 545.9924,-49.9149 550.5683,-48.7685"/>
<polygon fill="#000000" stroke="#000000" points="551.73,-52.0835 560.5392,-46.1972 549.982,-45.3052 551.73,-52.0835"/>
</g>
<!-- FleetManager&#45;&gt;keymasterd -->
<g id="edge13" class="edge">
<title>FleetManager&#45;&gt;keymasterd</title>
<path fill="none" stroke="#000000" d="M147.3561,-176.5466C96.1588,-172.1016 29.3194,-164.5632 21,-155 -.878,-129.8511 7.917,-110.6586 21,-80 24.6928,-71.3463 30.9007,-63.5396 37.6475,-56.9179"/>
<polygon fill="#000000" stroke="#000000" points="40.0012,-59.5084 45.0865,-50.2138 35.3149,-54.3085 40.0012,-59.5084"/>
</g>
<!-- FleetManager&#45;&gt;Hypervisor -->
<g id="edge9" class="edge">
<title>FleetManager&#45;&gt;Hypervisor</title>
<path fill="none" stroke="#000000" d="M230.9687,-164.3551C246.4212,-153.6242 266.6843,-139.5526 283.4407,-127.9162"/>
<polygon fill="#000000" stroke="#000000" points="285.6223,-130.6624 291.8396,-122.0836 281.6295,-124.9128 285.6223,-130.6624"/>
</g>
<!-- installer -->
<g id="node12" class="node">
<title>installer</title>
<ellipse fill="#bfefff" stroke="#bfefff" cx="326" cy="-181" rx="40.0939" ry="18"/>
<text text-anchor="middle" x="326" y="-177.3" font-family="Times,serif" font-size="14.00" fill="#000000">installer</text>
</g>
<!-- installer&#45;&gt;ImageServer -->
<g id="edge12" class="edge">
<title>installer&#45;&gt;ImageServer</title>
<path fill="none" stroke="#000000" d="M366.4883,-180.6486C447.3684,-179.5243 622.7629,-174.8045 641,-155 663.58,-130.4795 652.2802,-111.3667 641,-80 638.349,-72.6285 633.9481,-65.5979 629.0626,-59.3501"/>
<polygon fill="#000000" stroke="#000000" points="631.3814,-56.6769 622.2189,-51.3572 626.0641,-61.2296 631.3814,-56.6769"/>
</g>
<!-- installer&#45;&gt;Hypervisor -->
<g id="edge11" class="edge">
<title>installer&#45;&gt;Hypervisor</title>
<path fill="none" stroke="#000000" d="M323.3372,-162.8446C322.0671,-154.1849 320.5191,-143.6301 319.1033,-133.9768"/>
<polygon fill="#000000" stroke="#000000" points="322.5525,-133.3744 317.6383,-123.9882 315.6265,-134.3903 322.5525,-133.3744"/>
</g>
</g>
</svg>
